<?xml version="1.0" encoding="utf-8"?>
<!-- Generator: Adobe Illustrator 24.2.3, SVG Export Plug-In . SVG Version: 6.00 Build 0)  -->
<svg version="1.1" id="Слой_1" xmlns="http://www.w3.org/2000/svg" xmlns:xlink="http://www.w3.org/1999/xlink" x="0px" y="0px"
	 viewBox="0 0 1024 1024" style="enable-background:new 0 0 1024 1024;" xml:space="preserve">
<style type="text/css">
	.st0{fill:#2787F5;}
	.st1{fill:#FFFFFF;}
</style>
<circle class="st0" cx="512" cy="512" r="512"/>
<path class="st1" d="M613.2,195H414c-181.7,0-224.8,43-224.8,224.8v199.1c0,181.7,43,224.8,224.8,224.8h199.1
	c181.7,0,224.8-43,224.8-224.8V419.8C837.9,238,794.4,195,613.2,195L613.2,195z M712.9,657.8h-47.2c-17.9,0-23.3-14.2-55.4-46.7
	c-27.9-27-40.3-30.7-47.2-30.7c-9.6,0-12.4,2.7-12.4,16V639c0,11.4-3.7,18.3-33.9,18.3c-49.9,0-105.3-30.2-144.2-86.5
	c-58.6-82.4-74.6-144.2-74.6-157c0-6.9,2.7-13.3,16-13.3h47.2c11.9,0,16.5,5.5,21.1,18.3c23.3,67.3,62.3,126.3,78.2,126.3
	c5.9,0,8.7-2.7,8.7-17.9v-69.6c-1.8-32-18.8-34.8-18.8-46.2c0-5.5,4.6-11,11.9-11h74.2c10.1,0,13.7,5.5,13.7,17.4v93.8
	c0,10.1,4.6,13.7,7.3,13.7c5.9,0,11-3.7,22-14.6c33.9-38,58.1-96.6,58.1-96.6c3.2-6.9,8.7-13.3,20.6-13.3h47.2
	c14.2,0,17.4,7.3,14.2,17.4c-5.9,27.5-63.6,109-63.6,109c-5,8.2-6.9,11.9,0,21.1c5,6.9,21.6,21.1,32.5,33.9
	c20.1,22.9,35.7,42.1,39.8,55.4C733.1,650.9,726.2,657.8,712.9,657.8L712.9,657.8z"/>
</svg>
