<?xml version="1.0" encoding="utf-8"?>
<!-- Generator: Adobe Illustrator 24.2.3, SVG Export Plug-In . SVG Version: 6.00 Build 0)  -->
<svg version="1.1" id="Слой_1" xmlns="http://www.w3.org/2000/svg" xmlns:xlink="http://www.w3.org/1999/xlink" x="0px" y="0px"
	 viewBox="0 0 878.3 322.5" style="enable-background:new 0 0 878.3 322.5;" xml:space="preserve">
<style type="text/css">
	.st0{fill:#915B4A;}
</style>
<g transform="translate(0.000000,1280.000000) scale(0.100000,-0.100000)">
	<path class="st0" d="M3419.9,12767.6c-104-16-249-80-313-139c-80-72-126-227-104-346c28-152,129-288,268-361c80-42,110-48,99-20
		c-41,98-44,167-11,237c46,101,161,171,297,182c83,7,152-9,249-57c260-131,460-373,713-867c78-154,113-213,126-213c9,0,32,16,51,35
		l34,35l-34,77c-158,364-307,661-418,833c-192,299-433,508-667,580C3640.9,12764.6,3483.9,12777.6,3419.9,12767.6z"/>
	<path class="st0" d="M6089.9,11967.6c-302-45-551-152-799-342c-33-25-184-166-336-312c-282-271-413-385-553-479
		c-161-108-373-195-532-219c-97-15-205-24-205-17c0,3,13,31,29,63c38,76,54,150,53,240c-3,285-199,517-501,593c-73,19-104,21-230,16
		c-202-7-335-45-479-139c-192-126-336-328-398-563c-39-148-18-400,45-547c11-27,17-48,12-48c-4,0-80,46-167,103
		c-505,328-779,453-1093,498c-114,16-305,7-406-20c-257-68-440-232-476-426c-32-171,43-338,196-440c80-52,153-75,246-75
		c94,0,163,23,231,78c56,44,128,136,128,162c0,29-15,32-76,14c-143-41-271,28-304,166c-33,140,55,273,216,326c48,15,86,19,209,18
		c174,0,293-24,472-96c157-62,285-138,653-383c659-440,906-536,1335-522c275,9,464,57,720,182c203,99,363,209,720,495
		c94,75,185,147,203,160c17,13,32,30,32,39c0,16-54,103-75,121c-12,10-42-9-157-94c-542-403-765-539-1025-624c-175-58-239-67-458-67
		c-186,0-207,2-305,28c-61,16-152,51-219,83c-102,50-124,65-206,147c-102,103-142,169-176,292c-56,204-7,433,128,600
		c104,128,226,195,374,203c192,10,302-73,325-245c12-97-31-174-123-220c-50-24-69-28-143-27c-63,0-99,6-136,22c-29,11-54,18-57,16
		c-10-10,21-83,57-137c60-91,184-169,320-203c86-21,387-30,512-15c367,45,710,203,1074,495c135,109,264,225,489,440
		c232,222,394,324,626,394c166,51,208,57,395,57c147,0,189-4,262-22c329-83,528-282,615-613c22-81,26-118,27-255c1-164-7-222-46-345
		c-43-134-102-232-197-325c-149-146-335-210-513-175c-169,33-266,132-255,261c6,67,25,107,75,157c94,94,227,107,330,32
		c53-38,93-108,97-166c2-26,10-53,18-61c13-13,19-11,51,18c64,56,81,100,81,210c0,92-1,98-42,181c-89,178-298,321-547,372
		c-101,21-321,22-438,1c-175-30-339-96-538-214c-58-35-107-64-108-66c-6-6,50-104,70-121c17-16,25-14,156,54
		c193,100,399,162,538,162h41l-67-69c-111-113-160-235-160-401c0-104,14-167,54-255c14-32,26-59,26-61c0-10-124,60-210,117
		c-108,73-269,223-339,318c-64,87-150,230-211,350c-64,128-69,132-120,91c-49-39-49-35,32-184c115-211,200-326,368-500
		c191-197,370-331,590-441c531-267,1038-203,1421,177c123,123,201,226,447,598c177,267,230,340,301,411c96,96,177,143,271,158
		c103,17,228-19,267-75c10-14,28-37,40-52c21-26,21-26,42-8c36,32,54,98,49,173c-12,171-154,310-349,343c-133,23-267-3-429-82
		c-93-46-116-62-200-148c-99-100-161-192-222-330l-32-72l-27,110c-114,463-453,804-919,924c-99,25-137,30-275,33
		C6191.9,11970.6,6106.9,11969.6,6089.9,11967.6z"/>
</g>
</svg>
