<?xml version="1.0" encoding="utf-8"?>
<!-- Generator: Adobe Illustrator 24.2.3, SVG Export Plug-In . SVG Version: 6.00 Build 0)  -->
<svg version="1.1" id="Слой_1" xmlns="http://www.w3.org/2000/svg" xmlns:xlink="http://www.w3.org/1999/xlink" x="0px" y="0px"
	 viewBox="0 0 878.3 322.5" style="enable-background:new 0 0 878.3 322.5;" xml:space="preserve">
<style type="text/css">
	.st0{fill:#915B4A;}
</style>
<g transform="translate(0.000000,1280.000000) scale(0.100000,-0.100000)">
	<path class="st0" d="M5070.4,12743.6c-234-72-475-281-667-580c-111-172-260-469-418-833l-34-77l34-35c19-19,42-35,51-35
		c13,0,48,59,126,213c253,494,453,736,713,867c97,48,166,64,249,57c136-11,251-81,297-182c33-70,30-139-11-237c-11-28,19-22,99,20
		c139,73,240,209,268,361c22,119-24,274-104,346c-64,59-209,123-313,139C5296.4,12777.6,5139.4,12764.6,5070.4,12743.6z"/>
	<path class="st0" d="M2500.4,11968.6c-138-3-176-8-275-33c-466-120-805-461-919-924l-27-110l-32,72c-61,138-123,230-222,330
		c-84,86-107,102-200,148c-162,79-296,105-429,82c-195-33-337-172-349-343c-5-75,13-141,49-173c21-18,21-18,42,8c12,15,30,38,40,52
		c39,56,164,92,267,75c94-15,175-62,271-158c71-71,124-144,301-411c246-372,324-475,447-598c383-380,890-444,1421-177
		c220,110,399,244,590,441c168,174,253,289,368,500c81,149,81,145,32,184c-51,41-56,37-120-91c-61-120-147-263-211-350
		c-70-95-231-245-339-318c-86-57-210-127-210-117c0,2,12,29,26,61c40,88,54,151,54,255c0,166-49,288-160,401l-67,69h41
		c139,0,345-62,538-162c131-68,139-70,156-54c20,17,76,115,70,121c-1,2-50,31-108,66c-199,118-363,184-538,214c-117,21-337,20-438-1
		c-249-51-458-194-547-372c-41-83-42-89-42-181c0-110,17-154,81-210c32-29,38-31,51-18c8,8,16,35,18,61c4,58,44,128,97,166
		c103,75,236,62,330-32c50-50,69-90,75-157c11-129-86-228-255-261c-178-35-364,29-513,175c-95,93-154,191-197,325
		c-39,123-47,181-46,345c1,137,5,174,27,255c87,331,286,530,615,613c73,18,115,22,262,22c187,0,229-6,395-57c232-70,394-172,626-394
		c225-215,354-331,489-440c364-292,707-450,1074-495c125-15,426-6,512,15c136,34,260,112,320,203c36,54,67,127,57,137
		c-3,2-28-5-57-16c-37-16-73-22-136-22c-74-1-93,3-143,27c-92,46-135,123-123,220c23,172,133,255,325,245c148-8,270-75,374-203
		c135-167,184-396,128-600c-34-123-74-189-176-292c-82-82-104-97-206-147c-67-32-158-67-219-83c-98-26-119-28-305-28
		c-219,0-283,9-458,67c-260,85-483,221-1025,624c-115,85-145,104-157,94c-21-18-75-105-75-121c0-9,15-26,32-39c18-13,109-85,203-160
		c357-286,517-396,720-495c256-125,445-173,720-182c429-14,676,82,1335,522c368,245,496,321,653,383c179,72,298,96,472,96
		c123,1,161-3,209-18c161-53,249-186,216-326c-33-138-161-207-304-166c-61,18-76,15-76-14c0-26,72-118,128-162c68-55,137-78,231-78
		c93,0,166,23,246,75c153,102,228,269,196,440c-36,194-219,358-476,426c-101,27-292,36-406,20c-314-45-588-170-1093-498
		c-87-57-163-103-167-103c-5,0,1,21,12,48c63,147,84,399,45,547c-62,235-206,437-398,563c-144,94-277,132-479,139
		c-126,5-157,3-230-16c-302-76-498-308-501-593c-1-90,15-164,53-240c16-32,29-60,29-63c0-7-108,2-205,17c-159,24-371,111-532,219
		c-140,94-271,208-553,479c-152,146-303,287-336,312c-248,190-497,297-799,342C2673.4,11969.6,2588.4,11970.6,2500.4,11968.6z"/>
</g>
</svg>
